<svg width="40" height="39" viewBox="0 0 40 39" fill="none" xmlns="http://www.w3.org/2000/svg">
<ellipse cx="19.8726" cy="19.5" rx="19.8726" ry="19.5" fill="#A0522D"/>
<path d="M30.7008 14.5063C30.5558 14.3466 30.378 14.2189 30.179 14.1317C29.9801 14.0444 29.7645 13.9995 29.5466 14H24.9683C24.9683 12.8065 24.4851 11.6619 23.6251 10.818C22.765 9.97411 21.5986 9.5 20.3823 9.5C19.166 9.5 17.9995 9.97411 17.1395 10.818C16.2795 11.6619 15.7963 12.8065 15.7963 14H11.218C11.0013 14.0006 10.7873 14.046 10.5897 14.1332C10.3922 14.2204 10.2156 14.3475 10.0715 14.5063C9.92855 14.6644 9.82132 14.8503 9.75678 15.052C9.69223 15.2536 9.67184 15.4663 9.69694 15.6762L11.0594 26.9263C11.1035 27.2928 11.2839 27.6305 11.5659 27.8747C11.848 28.1189 12.2119 28.2526 12.588 28.25H28.1852C28.5613 28.2526 28.9252 28.1189 29.2072 27.8747C29.4893 27.6305 29.6696 27.2928 29.7138 26.9263L31.0762 15.6762C31.1012 15.4663 31.0807 15.2535 31.0159 15.0519C30.9512 14.8502 30.8438 14.6643 30.7008 14.5063ZM20.3823 11C21.1931 11 21.9708 11.3161 22.5441 11.8787C23.1175 12.4413 23.4396 13.2044 23.4396 14H17.325C17.325 13.2044 17.6471 12.4413 18.2204 11.8787C18.7938 11.3161 19.5714 11 20.3823 11ZM28.1938 26.75C28.191 26.751 28.1879 26.751 28.1852 26.75H12.5718L11.218 15.5H15.7963V17.75C15.7963 17.9489 15.8768 18.1397 16.0202 18.2803C16.1635 18.421 16.3579 18.5 16.5606 18.5C16.7633 18.5 16.9578 18.421 17.1011 18.2803C17.2444 18.1397 17.325 17.9489 17.325 17.75V15.5H23.4396V17.75C23.4396 17.9489 23.5201 18.1397 23.6635 18.2803C23.8068 18.421 24.0012 18.5 24.2039 18.5C24.4067 18.5 24.6011 18.421 24.7444 18.2803C24.8877 18.1397 24.9683 17.9489 24.9683 17.75V15.5H29.5543L28.1938 26.75Z" fill="#F5E6D3"/>
</svg>
