<?xml version="1.0" standalone="no"?>
<!DOCTYPE svg PUBLIC "-//W3C//DTD SVG 20010904//EN"
 "http://www.w3.org/TR/2001/REC-SVG-20010904/DTD/svg10.dtd">
<svg version="1.0" xmlns="http://www.w3.org/2000/svg"
 width="512.000000pt" height="512.000000pt" viewBox="0 0 512.000000 512.000000"
 preserveAspectRatio="xMidYMid meet">

<g transform="translate(0.000000,512.000000) scale(0.100000,-0.100000)"
fill="#000000" stroke="none">
<path d="M1977 5109 c-923 -76 -1690 -721 -1912 -1608 -42 -170 -58 -302 -58
-501 0 -394 94 -736 292 -1068 334 -560 897 -932 1557 -1028 134 -19 432 -22
564 -5 368 48 753 201 1022 407 31 24 60 44 63 44 11 0 187 -170 787 -762 622
-613 605 -599 696 -582 53 10 117 76 126 130 15 90 99 1 -1213 1290 l-154 151
73 89 c252 307 408 660 465 1049 22 148 22 419 0 573 -98 687 -520 1273 -1146
1592 -152 78 -273 123 -434 165 -229 59 -502 83 -728 64z m333 -320 c816 -74
1477 -658 1635 -1441 133 -663 -130 -1353 -671 -1765 -679 -517 -1618 -503
-2281 33 -525 426 -762 1095 -623 1762 56 266 191 542 375 762 380 456 976
703 1565 649z"/>
</g>
</svg>
