<svg width="500" height="500" viewBox="0 0 500 500" fill="none" xmlns="http://www.w3.org/2000/svg">
<path d="M109.016 75.0521C130.151 74.7916 148.042 78.9896 164.802 92.6823C176.281 102.057 183.755 113.859 188.073 127.812C201.281 170.521 172.693 205.323 150.438 238.359C142.161 250.641 134.271 265.115 128.031 278.589C114.062 308.76 109.172 342.927 109.323 375.943C109.344 380.687 108.854 387.714 109.302 392.187C110.526 391.385 110.365 384.245 110.51 382.464C112.464 358.807 115.333 335.479 122.276 312.719C136.443 266.25 166.594 218.385 215.776 204.057C249.052 194.359 285.698 205.651 304.234 235.734C308.714 243.01 311.13 249.953 313.375 258.099C312.776 248.604 313.203 236.391 313.219 226.74L313.182 169.089C316.797 169.146 320.542 169.104 324.161 169.052C346.667 168.724 369.354 169.448 391.844 168.953C392.438 198.292 392.078 229.333 392.156 258.724C392.214 277.469 392.88 296.719 390.677 315.37C383.792 373.719 334.63 424.047 274.479 424.839C272.703 424.865 263.208 425.26 262.25 425.078C262.667 424.187 268.036 423.552 269.359 423.365C282.99 421.474 296.391 410.75 303.776 399.562C316.432 380.057 312.797 354.016 313.068 331.75C313.276 314.536 312.786 297.203 313.068 279.943C307.99 279.672 301.25 279.854 296.057 279.849L264.594 279.839C239.411 279.833 213.068 279.479 187.984 279.979C187.688 284.271 187.927 291.078 187.927 295.552L187.786 323.484L187.677 424.828C162.104 424.385 134.13 424.599 108.5 424.88C108.365 419.911 108.411 414.922 108.406 409.953C108.391 386.87 108.438 363.802 108.5 340.714L108.339 260.255L108.333 131.547C108.339 113.937 108.219 96.3229 108.177 78.7135C108.172 77.1093 108.036 76.1041 109.016 75.0521Z" fill="white"/>
<path d="M254.948 330.344C278.411 328.745 298.766 346.385 300.51 369.839C302.255 393.292 284.734 413.755 261.292 415.641C237.646 417.542 216.974 399.839 215.214 376.182C213.453 352.526 231.286 331.964 254.948 330.344Z" fill="white"/>
<path d="M346.922 75.1042C369.271 72.4531 389.51 88.4948 392.037 110.854C394.563 133.219 378.412 153.37 356.031 155.771C333.828 158.156 313.87 142.156 311.365 119.969C308.859 97.7813 324.745 77.7344 346.922 75.1042Z" fill="white"/>
</svg>
