<svg width="40" height="40" viewBox="0 0 40 40" fill="none" xmlns="http://www.w3.org/2000/svg">
<circle cx="20" cy="20" r="20" fill="#A0522D"/>
<path d="M20.5 8C18.2255 8 16.0021 8.67446 14.1109 9.9381C12.2198 11.2017 10.7458 12.9978 9.87539 15.0991C9.00498 17.2005 8.77724 19.5128 9.22097 21.7435C9.6647 23.9743 10.76 26.0234 12.3683 27.6317C13.9766 29.24 16.0257 30.3353 18.2565 30.779C20.4872 31.2228 22.7995 30.995 24.9009 30.1246C27.0022 29.2542 28.7983 27.7802 30.0619 25.8891C31.3255 23.9979 32 21.7745 32 19.5C31.9968 16.451 30.7841 13.5278 28.6282 11.3718C26.4722 9.21586 23.549 8.00322 20.5 8ZM14.5377 27.1851C15.1776 26.1842 16.0592 25.3606 17.1012 24.7901C18.1432 24.2195 19.312 23.9205 20.5 23.9205C21.688 23.9205 22.8568 24.2195 23.8988 24.7901C24.9408 25.3606 25.8224 26.1842 26.4623 27.1851C24.7576 28.5109 22.6596 29.2307 20.5 29.2307C18.3404 29.2307 16.2424 28.5109 14.5377 27.1851ZM16.9615 18.6154C16.9615 17.9155 17.1691 17.2314 17.5579 16.6495C17.9467 16.0676 18.4993 15.6141 19.1459 15.3463C19.7925 15.0785 20.5039 15.0084 21.1903 15.1449C21.8767 15.2814 22.5072 15.6184 23.0021 16.1133C23.4969 16.6082 23.8339 17.2387 23.9705 17.9251C24.107 18.6115 24.0369 19.3229 23.7691 19.9695C23.5013 20.6161 23.0478 21.1687 22.4659 21.5575C21.884 21.9463 21.1998 22.1538 20.5 22.1538C19.5615 22.1538 18.6615 21.781 17.9979 21.1175C17.3343 20.4539 16.9615 19.5538 16.9615 18.6154ZM27.7715 25.9588C26.7849 24.5291 25.3977 23.4231 23.7841 22.7797C24.6509 22.0971 25.2833 21.1613 25.5935 20.1025C25.9038 19.0438 25.8764 17.9146 25.5151 16.8722C25.1539 15.8297 24.4768 14.9257 23.578 14.286C22.6791 13.6462 21.6033 13.3024 20.5 13.3024C19.3967 13.3024 18.3209 13.6462 17.4221 14.286C16.5232 14.9257 15.8461 15.8297 15.4849 16.8722C15.1236 17.9146 15.0962 19.0438 15.4065 20.1025C15.7167 21.1613 16.3492 22.0971 17.2159 22.7797C15.6024 23.4231 14.2151 24.5291 13.2285 25.9588C11.9818 24.5569 11.1669 22.8244 10.8821 20.9701C10.5972 19.1158 10.8544 17.2187 11.6228 15.5072C12.3912 13.7957 13.6379 12.3428 15.2129 11.3234C16.7879 10.3041 18.6239 9.76176 20.5 9.76176C22.3761 9.76176 24.2121 10.3041 25.7871 11.3234C27.3621 12.3428 28.6088 13.7957 29.3772 15.5072C30.1456 17.2187 30.4028 19.1158 30.1179 20.9701C29.8331 22.8244 29.0182 24.5569 27.7715 25.9588Z" fill="#F5E6D3"/>
</svg>
